<?xml version="1.0" encoding="UTF-8" standalone="no"?>
<svg
   xmlns:dc="http://purl.org/dc/elements/1.1/"
   xmlns:cc="http://creativecommons.org/ns#"
   xmlns:rdf="http://www.w3.org/1999/02/22-rdf-syntax-ns#"
   xmlns:svg="http://www.w3.org/2000/svg"
   xmlns="http://www.w3.org/2000/svg"
   xmlns:sodipodi="http://sodipodi.sourceforge.net/DTD/sodipodi-0.dtd"
   xmlns:inkscape="http://www.inkscape.org/namespaces/inkscape"
   width="92.604111mm"
   height="88.953133mm"
   viewBox="0 0 92.604111 88.953133"
   version="1.1"
   id="svg622"
   inkscape:version="1.0.2 (e86c870879, 2021-01-15)"
   sodipodi:docname="logo-rlab-blanco.svg">
  <defs
     id="defs616" />
  <sodipodi:namedview
     id="base"
     pagecolor="#ffffff"
     bordercolor="#666666"
     borderopacity="1.0"
     inkscape:pageopacity="0.0"
     inkscape:pageshadow="2"
     inkscape:zoom="0.35"
     inkscape:cx="-438.46959"
     inkscape:cy="323.57562"
     inkscape:document-units="mm"
     inkscape:current-layer="layer1"
     inkscape:document-rotation="0"
     showgrid="false"
     inkscape:window-width="1366"
     inkscape:window-height="740"
     inkscape:window-x="0"
     inkscape:window-y="0"
     inkscape:window-maximized="1" />
  <metadata
     id="metadata619">
    <rdf:RDF>
      <cc:Work
         rdf:about="">
        <dc:format>image/svg+xml</dc:format>
        <dc:type
           rdf:resource="http://purl.org/dc/dcmitype/StillImage" />
        <dc:title></dc:title>
      </cc:Work>
    </rdf:RDF>
  </metadata>
  <g
     inkscape:label="Layer 1"
     inkscape:groupmode="layer"
     id="layer1"
     transform="translate(-62.339126,-62.553952)">
    <path
       inkscape:connector-curvature="0"
       id="path1259"
       d="m 145.99012,151.39392 c 0.21927,-0.0572 0.52347,-0.0534 0.67603,0.009 0.15257,0.0617 -0.0268,0.10847 -0.39863,0.10385 -0.37182,-0.004 -0.49665,-0.055 -0.2774,-0.11223 z m -83.051394,-0.81494 -0.5996,-0.78612 0.59565,-0.8678 c 0.32762,-0.47729 1.44087,-2.64237 2.47389,-4.8113 1.03302,-2.16892 2.13924,-4.45051 2.45829,-5.07021 0.31904,-0.6197 1.94654,-3.86462 3.61665,-7.21097 1.67012,-3.34633 3.45288,-6.89548 3.96167,-7.88699 0.50879,-0.99151 2.31998,-4.58291 4.02486,-7.98088 l 3.09976,-6.17814 -0.9949,-1.84005 c -0.54719,-1.01203 -0.99489,-2.01137 -0.99489,-2.22073 0,-0.20938 -0.37114,-1.31649 -0.82474,-2.46025 -0.54792,-1.38158 -0.83239,-2.47372 -0.84756,-3.25387 -0.0125,-0.645882 -0.14844,-1.299932 -0.30198,-1.453462 -0.39758,-0.39759 -0.35527,-2.43554 0.0601,-2.89453 0.27574,-0.30469 0.29156,-0.51173 0.0845,-1.10579 -0.37848,-1.08569 0.0183,-3.41913 0.86557,-5.08975 0.18855,-0.37181 0.85585,-1.69006 1.48287,-2.92944 0.93303,-1.84427 1.53159,-2.66433 3.29645,-4.51638 1.18601,-1.244618 2.76482,-2.952518 3.50845,-3.795328 1.55443,-1.76175 2.64285,-2.55474 4.78631,-3.48717 2.50714,-1.09062 3.66438,-1.41445 5.99823,-1.6785 l 2.221524,-0.25134 2.19687,-4.51545 c 1.20828,-2.48351 2.31056,-4.79432 2.4495,-5.13516 0.26738,-0.65582 0.68641,-0.77038 1.40706,-0.38469 0.24151,0.12924 1.10701,1.57426 1.92332,3.21114 0.81633,1.63688 1.74649,3.25499 2.06703,3.59582 0.53145,0.56511 0.72623,0.61969 2.21145,0.61969 1.27256,0 2.03933,0.15386 3.50698,0.70364 1.63982,0.61429 2.0602,0.89329 3.31054,2.1971 1.9147,1.99658 2.37813,2.92633 2.18486,4.38328 -0.21303,1.60588 -1.07467,3.58011 -2.25686,5.170968 -0.56221,0.75655 -1.02219,1.49584 -1.02219,1.64286 0,0.14703 0.27762,0.76177 0.61691,1.36609 0.33931,0.60432 0.78695,1.40298 0.99477,1.77479 0.20782,0.37182 1.30145,2.51635 2.4303,4.76561 1.12885,2.24928 2.45813,4.68297 2.95396,5.40824 0.49583,0.72525 1.05636,1.84382 1.24565,2.485722 0.18927,0.6419 0.5275,1.40244 0.75162,1.69007 0.68837,0.88352 1.14722,1.9334 1.14722,2.62495 0,0.3628 0.1521,0.78587 0.338,0.94016 0.18592,0.15429 0.33802,0.4078 0.33802,0.56336 0,0.15555 0.15211,0.40906 0.33802,0.56335 0.18591,0.1543 0.33802,0.51658 0.33802,0.8051 0,0.28851 0.13231,0.60565 0.29403,0.70477 0.16172,0.0991 0.5249,0.56047 0.80707,1.02523 0.28218,0.46478 0.59378,0.84504 0.69244,0.84504 0.0986,0 0.81372,1.24221 1.58899,2.76045 0.7753,1.51825 1.48672,2.86186 1.58097,2.9858 0.32796,0.43129 1.9586,3.38215 2.9512,5.34058 0.23241,0.45854 0.55493,0.91486 0.71672,1.01404 0.16179,0.0992 0.52837,0.73303 0.81462,1.40858 0.28625,0.67553 0.78775,1.62622 1.11444,2.11264 1.04958,1.56272 5.88222,9.76461 6.59546,11.19371 0.15464,0.30984 1.06097,1.8816 2.01406,3.4928 0.95309,1.6112 2.21276,3.7527 2.79926,4.75889 0.78264,1.34267 1.26947,1.92627 1.82973,2.19344 0.41985,0.20022 0.76337,0.45983 0.76337,0.57692 0,0.3017 -0.6568,0.92111 -0.97671,0.92111 -0.14766,0 -0.36858,0.22816 -0.49093,0.50703 -0.21407,0.48795 -0.38344,0.51548 -4.50395,0.73236 -2.35483,0.12394 -4.43361,0.32311 -4.61952,0.44262 -0.28914,0.18585 -4.7941,0.35787 -9.01372,0.34416 -3.27811,-0.0106 -11.10519,-0.40213 -12.5312,-0.62677 -1.82823,-0.28801 -10.53541,-0.0191 -14.50993,0.44808 -2.57951,0.30321 -5.97401,0.32889 -8.450354,0.0639 -1.49776,-0.16027 -4.49525,0.053 -8.40641,0.59794 -1.25197,0.17445 -1.72589,0.16318 -1.97922,-0.0471 -0.25435,-0.21108 -1.62302,-0.2403 -5.79018,-0.12358 -3.0014,0.0841 -8.75912,0.20973 -12.79493,0.27931 l -7.33783,0.12646 z m 76.681184,-1.50767 c 0,-0.12394 -0.20282,-0.22534 -0.4507,-0.22534 -0.24786,0 -0.45067,0.1014 -0.45067,0.22534 0,0.12394 0.20281,0.22534 0.45067,0.22534 0.24788,0 0.4507,-0.1014 0.4507,-0.22534 z M 76.411266,148.7427 c 0.74362,-0.0546 3.22803,-0.10651 5.5209,-0.11547 2.29285,-0.009 5.22571,-0.10066 6.51744,-0.20385 2.62079,-0.2093 2.3664,-0.0476 3.961,-2.517 2.4257,-3.75642 2.57086,-4.0535 3.14529,-6.43718 0.31507,-1.30742 0.57286,-2.87417 0.57286,-3.48163 0,-0.60747 0.12073,-1.80853 0.26828,-2.66902 0.41598,-2.42577 -0.26943,-5.14677 -1.93526,-7.68289 -0.28493,-0.43378 -0.90312,-1.39712 -1.37376,-2.14076 -0.47063,-0.74363 -1.13314,-1.65627 -1.47225,-2.02807 -0.33911,-0.37182 -0.89741,-1.13236 -1.24067,-1.69008 -0.34326,-0.55773 -1.75048,-2.38301 -3.12716,-4.05617 -1.37667,-1.67317 -2.85206,-3.48805 -3.27864,-4.03307 -0.42658,-0.54502 -0.81552,-0.87117 -0.86431,-0.72479 -0.0488,0.14638 0.0214,0.39898 0.15625,0.56133 0.17845,0.21501 0.14949,0.61671 -0.10662,1.47912 -0.34859,1.17383 -4.1785,9.00404 -5.23175,10.69627 -0.74887,1.20318 -6.52812,12.6169 -7.03571,13.89517 -0.22492,0.56641 -1.08673,2.4424 -1.91514,4.16884 -1.83718,3.82876 -2.81385,6.20831 -2.81385,6.85561 v 0.48671 l 4.45052,-0.13194 c 2.44778,-0.0726 5.05894,-0.17658 5.80258,-0.23113 z m 26.590434,-0.81743 c 2.35484,-0.1229 5.14276,-0.24489 6.19539,-0.27108 l 1.91386,-0.0476 0.15421,-1.12671 c 0.0848,-0.6197 0.35482,-1.80279 0.6,-2.62911 0.88889,-2.99579 1.04263,-5.13788 0.62806,-8.7507 -0.20622,-1.79711 -0.51885,-3.7238 -0.69474,-4.28152 -1.79273,-5.68456 -4.54683,-9.76198 -9.40199,-13.91955 -1.92933,-1.65212 -5.014314,-3.97869 -7.136794,-5.38231 -1.76681,-1.16838 -2.87282,-2.23476 -4.25176,-4.09935 -1.59046,-2.15063 -2.23262,-3.91234 -2.75208,-7.550202 -0.43933,-3.07671 -0.44033,-3.44156 -0.0199,-7.35686 0.44368,-4.13132 0.60541,-4.67143 1.76118,-5.8812 0.56738,-0.59389 1.11857,-1.02602 1.22488,-0.96033 0.1063,0.0657 0.62003,-0.19682 1.14159,-0.58337 0.52158,-0.38656 1.61915,-1.19946 2.43904,-1.80643 1.41966,-1.051 1.58253,-1.27351 3.41697,-4.668158 1.05942,-1.96053 1.960364,-3.76738 2.002084,-4.01526 0.0716,-0.4253 -0.032,-0.44709 -1.839574,-0.38694 -1.26143,0.0419 -2.22316,0.20468 -2.81678,0.47654 -0.49574,0.22703 -1.37188,0.58274 -1.94696,0.79045 -1.44891,0.52336 -2.85274,1.49557 -4.88275,3.38151 -0.95333,0.88567 -2.24916,2.03398 -2.87966,2.55178 -1.69174,1.389418 -4.59918,5.920998 -4.95393,7.721268 -0.0855,0.43378 -0.23001,0.8901 -0.32119,1.01404 -0.0912,0.12394 -0.29051,1.64501 -0.44294,3.38015 -0.24035,2.73585 -0.22934,3.42659 0.0829,5.2016 0.33967,1.930942 2.39833,8.215632 2.89112,8.825992 0.28448,0.35235 0.62292,0.3652 0.62292,0.0236 0,-0.34497 1.19288,-2.21982 1.41269,-2.22033 0.27813,-6.8e-4 -0.0724,1.14159 -0.75166,2.44981 -0.50865,0.97952 -0.58676,1.32129 -0.40893,1.789 0.25303,0.66551 1.62007,2.55605 3.639,5.03251 0.77245,0.94751 2.09379,2.56998 2.9363,3.60549 0.84251,1.0355 1.83677,2.41185 2.20947,3.05853 0.3727,0.64668 1.23535,1.89762 1.91699,2.77983 1.4144,1.83061 1.8657,2.74597 2.60489,5.28343 0.43078,1.47869 0.5251,2.32933 0.52477,4.73221 -6.9e-4,4.47548 -0.75414,6.68398 -3.86083,11.31614 -0.93242,1.39028 -1.63369,2.62749 -1.55837,2.74937 0.14385,0.23274 2.95964,0.17265 10.602484,-0.22626 z M 91.847246,84.623268 c 0,-0.12394 0.1014,-0.22534 0.22534,-0.22534 0.12394,0 0.22535,0.1014 0.22535,0.22534 0,0.12394 -0.10141,0.22535 -0.22535,0.22535 -0.12394,0 -0.22534,-0.10141 -0.22534,-0.22535 z m 28.036044,62.743242 c 1.9725,-0.0645 3.6622,-0.16421 3.75488,-0.22149 0.0927,-0.0573 0.23525,-0.49917 0.31682,-0.98193 0.10904,-0.64538 0.0332,-1.10742 -0.28657,-1.74522 -0.50042,-0.99823 -0.82959,-3.14648 -0.80622,-5.26165 0.0186,-1.68149 0.68893,-3.49325 1.57878,-4.26696 0.42717,-0.37141 0.53259,-0.63493 0.43876,-1.09674 -0.0679,-0.33433 -0.22679,-1.65674 -0.35303,-2.93869 -0.12624,-1.28195 -0.28635,-2.42274 -0.35579,-2.53511 -0.0694,-0.11235 -0.44984,-0.20467 -0.84534,-0.20513 -0.845,-8.3e-4 -2.02456,-0.66425 -2.48411,-1.39679 -0.26535,-0.42299 -0.82639,-3.3227 -0.82639,-4.27118 0,-0.13319 0.41661,-0.62297 0.92579,-1.08842 0.71973,-0.65789 0.8923,-0.95179 0.77529,-1.32042 -0.31665,-0.99771 -1.96443,-3.15496 -3.29151,-4.30921 -1.2964,-1.12759 -1.4536,-1.20113 -2.48894,-1.16448 -1.90252,0.0674 -3.22445,-0.85585 -4.14332,-2.89353 -0.4103,-0.90989 -0.4127,-0.99111 -0.048,-1.6264 0.21107,-0.36778 0.38378,-0.76072 0.38378,-0.8732 0,-0.31283 -2.74111,-2.23775 -3.18659,-2.23775 -0.21577,0 -0.45497,0.1014 -0.53157,0.22534 -0.2235,0.36162 -1.5922,0.26069 -2.82687,-0.20844 -1.25148,-0.47553 -3.14471,-1.90265 -3.14471,-2.3705 0,-0.16242 -0.15584,-0.42468 -0.34633,-0.58276 -0.19047,-0.15809 -0.31723,-0.49551 -0.28168,-0.74983 0.0899,-0.64272 -1.43418,-1.49896 -2.393744,-1.34483 -1.18148,0.18978 -3.12486,-0.69525 -4.07631,-1.85637 -0.45567,-0.556092 -1.3693,-1.357022 -2.03028,-1.779842 -0.76295,-0.48805 -1.42292,-1.14611 -1.80738,-1.80215 -0.33309,-0.56836 -0.79742,-1.13605 -1.03187,-1.26152 -0.26545,-0.14207 -0.42626,-0.47106 -0.42626,-0.87212 0,-0.65376 -0.57367,-1.11005 -0.93779,-0.74591 -0.4103,0.4103 -0.12891,4.245 0.34637,4.72028 0.0855,0.0855 0.58307,0.13164 1.10577,0.10257 0.87283,-0.0485 1.03717,0.038 2.01398,1.05866 1.03139,1.077812 1.06549,1.157762 1.12671,2.641062 0.0596,1.44477 0.0303,1.54834 -0.52807,1.86741 -0.53129,0.30358 -0.69441,0.29838 -1.61011,-0.0514 -0.86702,-0.33112 -1.08537,-0.5473 -1.46441,-1.4499 -0.24501,-0.58342 -0.51107,-1.33962 -0.59126,-1.68045 -0.0802,-0.34083 -0.25626,-0.61969 -0.39128,-0.61969 -0.25781,0 -0.20444,0.3276 0.39163,2.40391 0.67184,2.34012 3.84809,6.40149 6.31189,8.07079 1.73098,1.1728 4.247904,2.9817 4.880324,3.50747 0.42066,0.34972 3.6636,3.12065 4.99808,4.2706 0.92253,0.79494 3.33389,3.8401 4.19339,5.29555 0.51234,0.86757 1.12867,1.85825 1.36963,2.20152 1.00283,1.42864 2.45184,7.50526 2.59165,10.86837 0.093,2.23816 -0.0802,3.50655 -1.16305,8.51168 -0.53266,2.46217 -0.50317,2.50129 1.75296,2.32614 1.02081,-0.0791 3.46988,-0.1969 5.44239,-0.26144 z m -4.02397,-3.42176 c -0.4422,-0.46476 -0.8904,-1.15163 -0.99598,-1.52639 -0.28047,-0.99537 0.13409,-3.41083 0.83095,-4.84158 0.55837,-1.14645 0.66598,-1.24255 1.46489,-1.3083 1.59418,-0.13121 2.64207,1.14368 3.04575,3.70557 0.29619,1.87961 0.11562,2.63318 -0.91013,3.79849 -0.77027,0.87509 -1.01673,1.01725 -1.76345,1.01725 -0.70988,0 -1.01449,-0.15394 -1.67203,-0.84504 z m 2.77478,-1.26085 c 0.46637,-0.56195 0.53935,-1.6318 0.16119,-2.36306 -0.74989,-1.45013 -1.74355,-1.32438 -1.68529,0.21326 0.0159,0.41959 -0.0416,0.97592 -0.1279,1.23631 -0.29467,0.88962 1.05324,1.63494 1.652,0.91349 z m -0.30909,-4.42905 c 0.0767,-0.12393 -0.0248,-0.22534 -0.22534,-0.22534 -0.20054,0 -0.30194,0.10141 -0.22535,0.22534 0.0767,0.12394 0.17801,0.22534 0.22535,0.22534 0.0473,0 0.14874,-0.1014 0.22534,-0.22534 z m -2.8168,-7.22826 c -0.95042,-0.55142 -1.70147,-1.64595 -2.27666,-3.31776 -0.83451,-2.42554 -0.4276,-3.65057 1.21262,-3.65057 0.96677,0 1.9023,0.85436 2.76773,2.52762 0.73186,1.41494 0.78425,3.77283 0.0991,4.45801 -0.56033,0.56033 -0.81137,0.55792 -1.80276,-0.0173 z m 1.35208,-1.37783 c 0,-0.29065 -0.59712,-0.21087 -0.86843,0.11603 -0.18117,0.21832 -0.17427,0.3716 0.0257,0.57161 0.21418,0.21417 0.3349,0.18908 0.558,-0.11603 0.15658,-0.21414 0.28469,-0.47136 0.28469,-0.57161 z m -0.67603,-1.69731 c 0,-0.75202 -0.52929,-1.9024 -1.11597,-2.42547 -0.49512,-0.44144 -0.50658,-0.44164 -0.8198,-0.0133 -0.17471,0.23893 -0.31766,0.62288 -0.31766,0.85322 0,0.53811 0.5953,1.71531 1.20364,2.3802 0.44453,0.48583 0.49328,0.49389 0.76235,0.12593 0.15809,-0.21619 0.28744,-0.63048 0.28744,-0.92062 z m -8.37102,-8.72783 c -2.00832,-1.36468 -2.80294,-3.60267 -1.75305,-4.93738 0.55871,-0.71028 0.85566,-0.73285 1.99501,-0.15158 2.09101,1.06674 3.33244,4.02408 2.24121,5.33893 -0.39519,0.47619 -1.59181,0.35573 -2.48317,-0.24997 z m 1.78419,-1.03393 c 0.11456,-0.59482 -1.25989,-2.41098 -2.02694,-2.67837 -1.07471,-0.37465 -1.21904,8.3e-4 -0.49518,1.28872 0.88429,1.57311 2.33305,2.37135 2.52212,1.38965 z m -10.545414,-6.23853 c -0.75286,-0.52599 -1.57401,-1.51362 -2.21551,-2.66466 l -0.53162,-0.95391 0.52343,-0.70798 c 0.84788,-1.14682 1.71636,-1.15151 3.03847,-0.0163 0.915724,0.7862 2.120884,2.48449 2.120884,2.98866 0,0.49204 -0.41033,1.33354 -0.76609,1.57109 -0.44444,0.29675 -1.599744,0.18131 -2.169564,-0.21682 z m 1.317254,-1.79793 c -0.0952,-0.49425 -1.865384,-1.74544 -2.187664,-1.54625 -0.36923,0.22819 0.31459,1.1433 1.16924,1.56473 0.926454,0.45682 1.109334,0.4535 1.018424,-0.0185 z m 35.64515,36.97013 c 2.16892,-0.0951 6.19974,-0.14414 8.95738,-0.10888 2.75763,0.0353 5.01388,0.0159 5.01388,-0.0433 0,-0.18254 -1.77791,-3.05914 -3.74211,-6.05463 -1.03113,-1.5725 -2.70298,-4.51323 -3.7152,-6.53493 -1.01223,-2.0217 -2.1637,-4.18285 -2.55883,-4.80254 -0.39512,-0.6197 -1.09728,-1.88725 -1.56037,-2.81678 -0.46308,-0.92955 -1.27544,-2.39991 -1.80523,-3.26747 -0.52979,-0.86757 -1.49784,-2.59145 -2.1512,-3.83083 -0.65335,-1.23939 -1.3298,-2.41352 -1.50319,-2.60919 -0.1734,-0.19567 -0.31527,-0.51676 -0.31527,-0.71354 0,-0.43915 -1.74048,-3.85759 -3.35646,-6.59235 -0.65912,-1.11545 -1.39565,-2.52683 -1.63674,-3.13639 -0.2411,-0.60958 -0.62114,-1.3701 -0.84456,-1.69008 -0.22342,-0.31997 -1.14257,-2.00142 -2.04257,-3.73656 -0.89999,-1.735142 -1.77319,-3.408312 -1.94042,-3.718152 -0.16724,-0.30985 -0.43435,-0.83354 -0.59355,-1.16377 -0.15922,-0.33022 -0.96029,-1.80059 -1.78014,-3.26747 -0.81986,-1.46689 -1.81488,-3.24774 -2.21115,-3.95748 -0.98805,-1.76964 -1.55118,-2.17723 -2.8118,-2.03514 -0.8582,0.0967 -1.08397,0.0299 -1.5816,-0.46765 -0.48518,-0.48517 -0.58049,-0.78713 -0.58049,-1.8391 0,-0.83903 -0.15981,-1.57186 -0.47941,-2.19831 -0.39823,-0.7806 -0.45822,-1.192238 -0.35435,-2.431248 0.0891,-1.06266 0.0344,-1.64843 -0.19059,-2.03711 -0.17361,-0.30006 -0.46893,-0.86818 -0.65628,-1.26251 -0.18735,-0.39433 -0.4455,-0.78177 -0.57367,-0.86099 -0.31067,-0.19201 -1.24549,-2.08136 -1.44917,-2.92892 -0.0894,-0.37181 -0.29077,-0.82813 -0.44757,-1.01404 -0.15681,-0.18591 -0.86856,-1.32662 -1.58167,-2.53492 -0.71309,-1.20829 -1.37566,-2.14802 -1.47235,-2.08825 -0.0967,0.0597 -0.29042,0.56383 -0.43051,1.12014 -0.51952,2.06319 -3.3376,8.03155 -6.524364,13.817788 -1.20999,2.19698 -3.15824,5.89681 -4.32945,8.22184 l -2.12948,4.22733 0.48292,0.84289 c 0.2656,0.46358 0.85282,1.14283 1.30495,1.50945 0.76879,0.62339 0.9504,0.66718 2.80343,0.67602 1.82074,0.009 2.05946,0.0636 2.944364,0.67653 0.9315,0.64526 0.95869,0.69829 0.83201,1.622552 -0.12119,0.88414 -0.0767,0.99407 0.59472,1.47222 0.5296,0.3771 1.16992,0.55307 2.36976,0.65121 1.96736,0.16091 3.23635,0.91574 4.06768,2.41956 0.34292,0.62033 0.97253,1.23856 1.80118,1.76864 0.70069,0.44824 1.79945,1.23142 2.4417,1.74043 0.64225,0.509 1.59644,1.17896 2.12044,1.48882 0.52399,0.30984 1.36933,1.12108 1.87851,1.80274 0.50919,0.68166 1.17815,1.50953 1.4866,1.83972 0.30845,0.33019 0.98484,1.09071 1.5031,1.69007 0.51825,0.59935 1.39256,1.59675 1.94292,2.21645 0.55036,0.61968 1.31374,1.68443 1.69641,2.36609 0.38268,0.68166 1.07081,1.59232 1.52919,2.02368 0.45838,0.43136 1.02565,1.21884 1.26059,1.74996 0.40208,0.90897 0.40656,1.04614 0.0761,2.33578 -0.28276,1.10376 -0.30499,1.65814 -0.11432,2.85169 0.13017,0.81486 0.27711,1.54698 0.32651,1.62692 0.0495,0.0799 0.18788,1.10374 0.30772,2.27512 0.12102,1.18288 0.48107,2.8795 0.80985,3.81604 0.44478,1.26702 0.62254,2.3025 0.71502,4.16503 l 0.12308,2.47876 -0.79921,1.12671 c -0.89974,1.26843 -1.26535,2.00553 -1.3334,2.68834 -0.0764,0.76624 1.29859,0.8247 10.20661,0.43393 z m -10.4288,-4.64332 c 0.11963,-0.15493 0.19583,-0.5859 0.16933,-0.95772 -0.0264,-0.37182 -0.0612,-1.15536 -0.0773,-1.74121 -0.0241,-0.88369 -0.1297,-1.13112 -0.61974,-1.4522 -0.56306,-0.36894 -0.6052,-0.36717 -0.90137,0.0379 -0.17088,0.2337 -0.3107,0.72156 -0.3107,1.08414 0,0.5483 0.0759,0.63941 0.4507,0.54139 0.55065,-0.14401 0.59642,0.30939 0.10668,1.05684 -0.65795,1.00416 0.4637,2.36158 1.18234,1.43089 z m -0.16231,-5.91525 c 0,-0.82571 -0.17763,-0.97162 -0.63095,-0.5183 -0.45347,0.45346 -0.33574,1.30699 0.18026,1.30699 0.36484,0 0.45069,-0.15022 0.45069,-0.78869 z m -1.22105,-10.35862 c 0.0699,-0.27858 -0.0209,-0.8608 -0.20183,-1.29382 -0.18094,-0.43303 -0.40123,-1.21502 -0.48954,-1.73777 -0.0883,-0.52274 -0.28741,-0.99911 -0.44243,-1.05859 -0.15502,-0.0596 -0.6454,0.25539 -1.08973,0.69972 l -0.80788,0.80788 0.32654,1.06238 c 0.22621,0.73591 0.57356,1.24845 1.13042,1.66798 0.88739,0.66854 1.38121,0.6222 1.57445,-0.14778 z m -8.64472,-13.69344 c -0.46725,-0.7988 -2.42733,-2.28925 -2.74907,-2.0904 -0.6819,0.42144 0.62019,2.62509 1.86808,3.16157 0.63009,0.27088 0.75298,0.26471 0.99366,-0.05 0.22042,-0.28816 0.19818,-0.48979 -0.11267,-1.02121 z m -8.387,-6.35843 c 0,-0.17996 -0.61386,-0.68699 -1.36413,-1.12671 -1.55482,-0.91127 -1.56533,-0.91442 -1.56533,-0.4718 0,0.42112 1.96203,1.92573 2.51118,1.92573 0.23006,0 0.41828,-0.14725 0.41828,-0.32722 z m -14.545024,-3.71206 c 0.2238,-0.36215 -0.38037,-1.36894 -0.82152,-1.36894 -0.6014,0 -0.75718,0.61575 -0.28717,1.13511 0.42847,0.47345 0.89922,0.57274 1.10869,0.23383 z m -1.26962,-2.775032 c -0.0396,-0.2776 -0.24947,-0.53854 -0.46636,-0.57988 -0.45203,-0.0862 -0.52763,0.4105 -0.12394,0.81418 0.41962,0.419632 0.66945,0.320472 0.5903,-0.2343 z m 7.64711,-0.002 c -0.051,-0.15493 -0.33834,-0.31002 -0.63847,-0.34464 -0.52846,-0.061 -0.53189,-0.0521 -0.1083,0.28167 0.52968,0.417322 0.873,0.446272 0.74677,0.0629 z m -6.80125,-9.34409 c 0.63667,-0.63668 1.71429,-3.09228 1.40266,-3.19629 -0.30227,-0.10088 -1.6186,1.32396 -2.13186,2.30761 -0.55404,1.06183 -0.0536,1.67159 0.7292,0.88868 z m 24.041134,-5.14331 c 0.33957,-0.31487 0.6174,-0.66286 0.6174,-0.7733 0,-0.11046 0.49669,-0.6711 1.10374,-1.24586 1.35323,-1.28123 2.74727,-3.915488 2.89705,-5.474448 0.1661,-1.72853 -1.18178,-4.35787 -2.6135,-5.09825 -2.02544,-1.0474 -5.02154,-1.78905 -5.57942,-1.38112 -0.33178,0.24262 -0.29719,0.42663 0.36503,1.94217 0.40235,0.92078 1.06874,2.04985 1.48086,2.50904 0.9491,1.05747 1.6177,2.36286 1.80266,3.51953 0.11086,0.69327 -0.0186,1.37364 -0.55739,2.929908 -0.73649,2.12719 -0.91044,3.6448 -0.41779,3.6448 0.15618,0 0.5618,-0.25761 0.90136,-0.57247 z"
       style="display:inline;fill:#202020;stroke-width:0.225343"
       inkscape:export-xdpi="96"
       inkscape:export-ydpi="96" />
  </g>
</svg>
